<mxfile host="app.diagrams.net" modified="2023-09-21T18:00:25.172Z" agent="Mozilla/5.0 (Windows NT 10.0; Win64; x64) AppleWebKit/537.36 (KHTML, like Gecko) Chrome/116.0.0.0 Safari/537.36" etag="vdDAyjDhTog3jwTAraep" version="21.8.0" type="github">
  <diagram name="Page-1" id="9f46799a-70d6-7492-0946-bef42562c5a5">
    <mxGraphModel dx="1035" dy="562" grid="1" gridSize="10" guides="1" tooltips="1" connect="1" arrows="1" fold="1" page="1" pageScale="1" pageWidth="850" pageHeight="1100" background="#ffffff" backgroundImage="{&quot;src&quot;:&quot;data:image/png;base64,iVBORw0KGgoAAAANSUhEUgAAAOEAAADhCAMAAAAJbSJIAAABs1BMVEX///9UtucDgLaN1vf///3//v////v///n7/////v3//f////cAdq71vpyjwdj8//woiL7d5fCSt9DydQD3//8Ae7MAda8DgLQAeLb///QAfLEAe7UAdqgAgLpUtuRStuk1kLJCjrUAdbcAfKyN2PRrw+/vdwDT4eQAgcFVtt9TteyJ2v8oi7aD1vUAg8UAfKnB5fXx/vbl7++v4/JCpND0oh9itdz41L5zpsXxfRjy3MXL3ur/7tj869Rwq8ilyNeAttpUnsWSwtbw9uf/16XGxa+ctrOFqrtasc5ssMbe5dcVh6y31OLeu5PM5ONFm7fnuHaCxeTu06W2pY7ytWJFk8jqp0tHgZhtho1hgpH8pUB2tsC2nmSxzsbArYGUkYfGv5+mmnS02vVxiYHpoTDXsnh93vz6wW2vzLrS8fqu1tfInlhvqdST2eX/5MH/x5ScjnT+qBGylWrjq2SU0v9AhJ+rr5/cnUyBjHjXrVlYr++MkZHztVq4nVOj3/fB3/bhmUY9hZiVlXn8vnq8qZOrsK7zsYT1l1TynWInk6vshidimMbzqHbslVT2jD7G0uf9vJz0RA3RAAAZLUlEQVR4nO1cjX/axt0XIJ1OEvFhIyEQIAXzZmQIRsbENjYUe02ahTqjq7Oua9PNS/bMWdM0yZpu6R7abs+SPGmS7k9+7gDDnXjZ00bu8/k8H32TtIl9Fve93/vv7sRxPnz48OHDhw8fPnz48OHDhw8fPnz48OHDhw8fPnz48OHDhw8fPnz48OHDhw8fPnz48OHDhw8fPt4QoggBlBBIiKKoKCIPRKjUOGnueIkDEAEgy3gwBwAnyxKYO1hBAlIBUvb28S8JPx1/0nmQWAgeE1RQc2W7mgqvxtPlVnuZkxQgzBuPRE4pvnWxasTj8UjnoAgQgHMfXjusHf7s7StX37HsQOnaQfvnijR/7c4NPFdsJWNacm0tnQ7qWS1evX7gLBiP2pF4dW0tmc1Ws0Y8drG7aNK7716x7RL+XbJsyzatUnvRo88DMlKanXBSDwbx7xHSWji+4gizJCOo4CgSJ6N1Mh4vSVCL3XAUdUr3kISk2t4vrpaswAQW+dVzZPDTCVJQ1FZ4LehGuppMN8VZ48WVpJZmB+ta9kCZmjLE5vzeLwNYO92w7J4qyT8BOY44Da6rG/oUwSARUPwazwHXcAm2sAB19icMXQ+33FKBgii+f8U2TdOaomjapVPALXBm3gElDlLpGQSHSHYSrBglRekkZw7V4x1VorVaUeT9m61pcmOOfQnN90/eAbRi6fkMg9pxgh2e6MRmj1yrajcQrXgq3LvZMOcRtJ6Ydg7MsgJPgQNTx0gn9Wp6AGKMLgMLah1J4MfjOa6TmrcW6WCyxSF5NFgWEsrtRmmaoUkw4GjaPQjU81VUVW4lg/r19Kr+qw8++ODX1Xhav+6eeaqFxpMQlbdi+nyBV5MHoiqPRqLah9emVNS2hjDJ3/Cfniifr6JKv4lj9Ur++qNbb3989+7Hb9/6pLrmFmIw3h6Pr30/yydRcow30TBNEKD8t6tTArQC+V4lhJHPEzmamKJynh4VwaVVXTc+uPNxbn09NPjd/+3vMMd0laGZPYKDUCfxy1USBDWDREIjSMfPAfAXy+IwKtbUX9xiCZqE33oolwsNkKvk8ZdM+0TkEL9wmj8eEipqaS370du59dGn4s9d79/5/Vr2UpWeeLqsEOuSEZ/J4hWJ1AdTr5c1bUqIutESB0IU92/bFkMRq+bkc8hHYUkGrIZ9moDnZYoSyhjBX91pVyqTD8Zy/MPbvzMYgnowvkKmDaR2bMjPNEvYhVhmZJri9XhzMN/aVqvEWqHVCLEgn4rXoIHmpr9vBFmV0cpq8IPfYuWcEKz0Nzf763c/Whsq4diDrDoqFDgnqenHWN1w1oXdBGZYqiezbrM1ykgSFfgfvxz4k7H9BQL5UAg/PReqVLCGjj8xb1on4rlQFJBYjCc/+OM9alH7pxDXTZJ6evdP6SCtqOnssSjzyqfVtE0rHqb6zrQYY20kov0tl4raZv9UwA8XpdPNEGUVIfw951zsUAbwYvzbP96byO/eqQL4RAJnlwn15x+laeHglKzL4RWJBCyLYdioHVanKCZVhD68wowM4BwN4bggyziRk53++kRVc4FS7zwI4gr2brz6ePJJlU1BhIM0EddBPPfZ36tMLm5gZ3Mj4sqgzYDD8ctZnc3idO1AfO9LlmDJdrhBRicRcfFoE7u08UcHrCY6h5AhJyLhK5SH2VAUOsVW73/LGpi2VAzaJVf4LuIf4bthVoSaXnUeuNLRJxu0u4Qiv0ErqmWeR9HPd1dvTFR0fVPgIG0NSPkrq31a+cYTt3PcVLCLkJWWS4bZ+K1HrpFsXJdlCW1MnE0uH/ha8ZqfqoBythdaPwuC9+QaqyeQ3/vcoBNyPVl3ZSh2YyB0AGsRZqRWjj94K0BRtErmVE0PYD80+Xg74DVDEYG7q99VzsJELnQquixBFuF9lmFQdxnhk+G0JQiaMZ1S6ezaw0c2a4Yn0wR4p/LnyigE5/J202OGgoBuxHqTQL8JoCsBJl94mKV1T9fqrAh7Q7uFChTfYaKi8eAqU/OWrMRUdi1DYXPia0KlvMe1MJSd1DHlzdRZ+T26/AXrQoKUmuKg74y9g7RM26z2+ZesFdpHM9MydZJp5PKWI3laYwhKe7VHB4pZrgzWHrLOxqhT0cLqK+p4LeRrcWrc7StssM8r6qyQrmxOnE3I6i9oR/4ohsc6lQSfollrjGqffZGmtU+PUJpnynAcXSTF0UZVIzbITz6k0xlc5jaFmfKRHIqh3VA8ZQiceH2so+s5eWbuCxPKR3HGFI2xJeJkkhKLjLhWcsQwWP3msc2oc2BOTgYBtcj5ksepWzuWD43MILe+IamzGEoK/BnjQarpyIQhPSFc7Trhs6G/3moEaIbWxjyG4kaIEuKmp2mN1DIm8Xbd4WZ6AiDwhw/pCkNPG4GRj3xyj/Z9WAn5a/GBEI30l+8y7VHTnmmEhCGg1RQnBV4y5MrlybNz8zMm8ReuIv54xNB2XPETNYdrsfbFA7Y5Y59Mh4ozwFxobCt509O2GzbDsQ1UNucbANz/C5uRJUeq1xNdOiVzwy5qGkd7JlRYzgIXskkZ4nTe8+ORgMXVSb29vjG//pTEvyYZKer1EsnCcDoju9ZF6YarwbSuf+gKFb0FUYA2xIp56hU/zBC145QFLHiyCH+WYRhmdTz/0pP81GahoirleDVd/eo2nZ5bprVo3vwy5WoCGx5QG0FKrGgThhVnvh2iWuJhkO7Z6BrWQdtsTssFcG0DR88v7zB7FFYJ4BRx3uOhPEkcc6aHdbDIdcpU6bu40/U3Vk21CGkKzjQtGKwa2M8wZmj2F0U5AVKJm9VbsBY/ECJ3TLvSxQnhe39h9900y3yyOdM9gpUkqSpoM7TMBQpCtulylAzzEvSOYbo+Ybgpq4sGJ/7TtdN0bJZUbtamPXCCya3HNtPIWRzkBKU/Wei8iaBXaY3ErzEMF8oQvV9lGabNHhBn1iKg89WWyfgZ+xTMP8BAZEiHi5IqeSVDHsQZhgsHo88+YRs2Rt2R+FkMZdTE+QwtQbMhLwzj58YQsQwXP1ZKfMnsaKezEYBmbu8j+fDBVSadMXtoYYvJzZDzqrxAIMkwXPhcSX30Bb2fls4mm6IwS/dEeP8mk5LaZlldaAKQZYhkrzpu6IdoKfj6yufsjmGyI83c1QSJDx8H2G5VuMstejrLsIEErzoZiItQDPuLPY3YM79kXY0edmZ6msRnWw22lV/PdsDC9aN8aSg/nSj9aIhchmL4b+KhY1t3fsVS1FZmR/z371gMQzOYNZyFrkaha2APcxpFalERvwIXav9JwLz6kPWmWa02ayT2M2wPsa4FtYOFIQ5R6bGXuxcyOqC6NBVnwQE9kbdNu/HN2qUs3Tqltr3Hc0Xc/Zts3WRG9GC2PFOhz+BQW6Z23wNqI8hiW6MYni6wb7Fp4jz01lepS9QBBt24lHAPlFTl9mOmtrcCWlZPx5qSPDcc8aeUsdge1hYQNWOUlm7OZwhBzwq8Y1/75hLtTpPBVNc9UoLvbZmMEdrHWT0bNDpwfgUM+pPdy8rCOusHQ67mx49eX9DFQE6JSMN+/1vW1wQzQGElI6CbtyyXkg5Ghp15eS+CsB+aGKLt7fbTdWpPvTK/fQBOrIE4Hj+MsxVGsumSjLr/oGUzdmgNG5HGyrxTqlByqL5+vuHtuRrKmebW5xmAwMESmbRlW7evu9xph64qpUGosJntRfNYH+VAtTkhEYFN6gRBvuddOMQA3WCIAoSzno5kvjuSin3r764DCckjaqQIhb0t1/kn86wJnmzPsXNZoaaQs5qeaqnsGJNtC+xN4cyuO0KlJ0PnYZlb7OmgdPZTalFUEf7D1WLDwXCopenqpTk1onJKbZKuBxaXIT8YyvE71ALem1m2AHnzrGA37TufGIwU9ThlvQgdbl11nSGNpIcM9WCsy0/rKZQ5kUpocvlFPbkfAR60I9RBqPXTWZkHL44nbTUaW64jmlpr0jIVE/94ZDGbFaZJNcvL0nTYFxAdDEO50qbi6b4FVGqxCuXIQrOKBWyFk0lbtz53HXxOLo9zN7j/4DcldjsmQi/G0rSzkUW1Qp9UMh1vjw1BUew06ENmfdnVpQcyVCxa8RpbkWya3onSOgokKS3Ek/3bHbvEhgpm57EsI+ZwHoBIljYrjCflvT0uzAOhu0afoqu4+1FITvQZhvbjP6XZDdMYTmzwrHhZxWWTKyWtM0VzuAeYWh/KgNl3CuUCXu/jS5wMynma4h822RECdFze3775+1WmORzMqqT6kxHOSF0nZU3moLueNhzGU0IJ0pv4REm9P50I+buXKIaVUKUPgSCcqSovo57J1kL5j2/j7HttPHNdT26LCAJEmhcNi16LQD/C7Kzi7HR0oJsXBQkJPH8SYlDy/jwNKfT1Xo5R1NCpyA+XUhB4dMKW6wGrqT6+qQWzdPamtUXs9bGOmnT3Apuk1F1lFDoYWxqFTyjhRMKhziYOEEicx0UopVsO5ZjPqfRPz3Z2JccKMBK08koid+evaTYoho94bu/BVbPEtEmtEzFRZjce8cjhcwF0TvuVEKOjOXNj5kGCN4SgcJkGy3DgVDc3MDZzputkoX2KS0DzzqMgfZdE19PFva3H5CwtbYQBRA4RaTRHPDI3ePJJf+ojQ+sNT1PSM8hQOlqbZkhOe1cq664EpfTkHiDHQ6w7NzPJ4NjGcA7w7dZ/2Tarz/aGoqhSh42euhEZqOb69CeGrPO55yWoErhan6I4NJCAyzcGTNKQExMN+/HW5+nk8FIGdiBrX334GFcUbn1WsV9xsgxBnIGXp6gNke+fzxlhDCRcbIRcNo8L4lzFJUHbtDexZ+IEUDTtxq2tv1+/hOe8tpb89k83WwH2RKZVspaHT1+KM0LEi1KujJeQWs98KTHvLMMbAyAnnXdLkRAMuCZt9+TBPREgnmCLbPzy9u2Hn3zyu4e33/+nZdmuWP+kP4wLCGXYBAGbb3bK8HOhet1B53ZtRpbAUTqQd3tuyxUnyIERkTTcERRE0vPFSfbVfz7+55UGZsfe+sGyb4jD6fKSY7Ay1NNBrVyh2YVyjWC9iYPkeV6baUfMUj4/kl5oPV+avkhn2sXxcNHB37cDo6s97pF4qLk8OV/lDookgibLpXyoksOo9Ep1zaifgPO9E6yAaxGSNJMbOgHSOJwxbfuuOk65UOJr02V5LMMNZRLawEp2imI2qxtVPRIpl4NVLa7V/5xQz/eeJQJcq0zUjlwnIwzdU8ah8ISfFKdAVfp2wLX/crYS+Dn3AJpkoBBsh9MukjjApM/aBbp23E+o56qiAygrkVLpyRyZ4Bzzz2zKCEWSsM6iWAqY95j9MSSrnXB8SowTcdZPFu+wewRV6epP5igeJnKSYIOVBBM9c/pe70BFe2KN9oqIl8Rr824r4iS+vgHcR6vOBQDxzsXjGYqHRWWVNnhXHw4iKPZxjHDrMy4mN/G3GJkgJIGllJZ2qyq5/xaP5B0FnfPlwzEUuR15EjDdJG2z58yqamCiaU55JMtqzmg44WcfZVLuK4vZoHaptKl4tm3/bwFxPHeuleuuI3d2qSnNvMvCqyK6x2qqFciJyryeZLscZoK/pqXr92SoonO/BDyZsown57QzkbqJtY9cLrftUq8pAyjPzPolTpGcnEluvJL4gv/fcwA/r3kv87DbySaTmqbhBNxIRuqlDciROvg8Oc0AjmNO+9N6+fjScb3RPlJ5xM3XIojzIbWZ65XwcjQONrBFLXoyAEAtLvVKx8f1eiO34Yji/8F7MUhnBpF3m/BIItcHIZShMN/R8QjHPREIHJAkDiho4T1XrCIIKyuQePwjSgLIcPG2sw8fPnz48OHjp4LEA+T5G7lwTuHxE98AEEqLcpofBQlIkBd/6mx0PvCCe73iqphAMwsQ78FDuFyjz6tKQm0ZjRqzPBAAam53ypHM9lKNg6MaBxW7AzSXHfK+FVfRoTTpL9S6XYdjhKWqYPfps2evXz9/ultD6uDFAxzYvTzEPlSBt3vAEDnXZXoKPCf/tzNKn2VV6UZS4XAqFjZSsWujMhwmVmLhOEG2mt3u8u7aLkifV1TSq8vMjQWUuLAT3YkWClH858W7aHjxGF6I4i9EyX+eH9Y81RjEFWN36XePSfzdVWd0PEtB38WyaytHzvLy0nFMqw679FBshzPbGN9FMNPVTJF9Yjdcpv1SJMwyPHxRKOy8vLy/v3/5ZSFaeL0//PKF6LOXBM+iO4VdT2UoIzwj5u1qfCRcRID0tRHKGMbKcEEhaGY044h4B8AthVeGY2Fz24hXm5POKESJSDXcReOWh4QZTgiixOHOzs79kRpCcGFnp3B5oPwXohcGX1P3XhVeeLrFJklLyViXlmE3bLQBJoL9ZyubbCaG35NrQO6k0mT3i2IoS9xyOZ6dnLyVle8NI3s82chlGfIIE9xXR2f9AISHrwvPB63xM4ZIRTvRy14yBFwrGYzQX4kYqbeICBDopuJNfnT2G8kqkjLhjsLKkJdqzsVkZkwoId1YvapjJZjBkLyj7+XOzp4qwTO9AErtAhx0BcYMFfi08NRLhjK4Yeip70ftZkkVm+FqnPDAs78YPqDVV+aceLiJZGXCEEPhisnU+ISIVEwZcGWwEFMMeajsFXYuT781kmDMUIRPoy89o8eRjkU5iB0HGl6HE2R0Y7WdPSatIaWZMg7p2cg8aIU7AJsNzVBG4qepT8/+JX4Xv6Y4xurY+1AMVSKe12pi5mGLiZbCbwoXPCTIcY6WFTPh7rDdRXbdM2J1jRxTAAfxFnM9QeTlo9WqrLIMIeCaYY0jL+PjZbgcyzpY8THlUVefYggTtRfR9+DsaEcY8hLpMu8WCrteEoTFeIe7u5qRRpPIxO9ymcFpQ4B5c6xGyY4ediCrpeSnUmFnMBKJ21qLI9enU87obDTFUKgdFnb25szjQvTpIcH+053CS2+3MLrhbV6MaCNLKobLMujEyL9AOVx0M4SZWHGaoVg2ikTaUHGyxjL+EfFT463Ri3ZohglshrU5fckL0R0CEvNfqt4eGlqKrSRgFwsRaw/iOqtdwK+ESVZC4qJrp0JIHGOGopuhkkk1yS09HlyLtwat1WJcc6a0VDgkDM/SJwnu745ACF0ovCB4/ezpPvR4p3SbHLuTIilyIF1pViN4Bu0UISCVU9+7beYwHT6io8UQAxmSmWObbhcHuJhaEd0MJYQZTrYU4TfR6DBRI2aHtVR9HX2uKqrXDX7xOEVysW4MWyIWYZhcn2imOnhSYss4cN/GcsKGI0zJkNghOXEorWjBZCwWDodj6WxSdTMUVXln4kQgfPTs+fPnr17tRPe5oac53Clc8P6Fu1gXHWJB5VQTYUd6kbhAJ0YkiZZiF5mLjkjE0s2QzWKaIY8DYlgn5xEQilczZ9BTSzy5m0gxBBA9j74cN7mlQfUE9wovaiOG3G40+tkoXAqoVpv9opUfCjmrk7MVIrbEhNIxvicOQg3qErlDYsSLtMoAVSzHl2RcdzDRQgTb4W0yY2UpO3lLbTdWRiT3oyM+x13eKRyyq6bej34zydreje4cKqNvoH1v3uKyjKVCEmY1E24WtczgvbFSmchVFreTGWqkhJSVbNYRVIlhKGIRrh4N3tuSTHXJm9wHOEzHlsidSjov5SX19c4zla2ldqJDT0MYIvC88GyU0e2+fvn8+ZuHjYSKbW741264Q5wOKYalTqqJDV5y9GRLxkIliy4LSGxqg6tqAy3lcd1PmCDeCaaICAXUNiKTbRmEEyVxxFDCCgxlcq1L2Y/iaJcYOTAkgNqrnWdwnJcipLwoPIXkvafKi713d3efo5m3/34AFLQUbg3/KpWTeIbDv6+klnBBJXDNmNZxkEgiAVL4dtxoEbaYIXa2kPQ2EIe6mqYTi4LyxdX25DSFpKQNcjOEMCQmB2WydqpyubDz7HDkL7HffIlFqI6rJwmpu4XoIHO9fP/w5XP1mfKmDIXESrw9nBUua432yMO3cYwkEwJdLXx9aWAOqJvBBEVygIQw3D4iMaHZvVqOpyJOgvTiuqtV6j1XQDmI3xAGDLvDAFJ0iJAQDu2FC4fDMe+9iJLyEJ4xxGVG7d1CYR8OGD77l/q69oaxA5cS351lM0itZs/8XNPoiOSEmcA3sVOs4oI+k0rGY0vD+SdgezW+ihFLhVe17AoZiXC6k1piHg6TOP+W+OtJPDaFR8a+H37OLi7yCy9wOf8Kl/gvzur5C4V/Db8NH0VfY38FXhzuf7b76o3PuUli5vroSCdKtNtnrzR0qpnB3ixSFPB9BxOJxWLZldroQAhU2uWLBOXO9koXkt1RThCK1cgh82zloHxV5ZUMGVsuly+WhzcVsU1efo65RQtYXy8r6vAF9eDdnWFBgR32qxdPIVfb33n68vXiS/z/K4aqwo96MtjspdEhJhzTlcHiAdIn5eXlbrfpQB6NgrGIIDk7IXCkHpH4QacRyRJyvQQEKhDIEhRwUBMkSRBHxQYPEf69R9pqigrPOsNiTR1lCCKsIfwjMKHu7qmQO49D0T58+PDhw4cPHz58+PDhw4cPHz58+PDhw4cPHz58+PDhw4cPHz58+PDhw4cPHz58+PDhw4cPH/+f8T8f3zPndXbS9QAAAABJRU5ErkJggg==&quot;,&quot;width&quot;:&quot;225&quot;,&quot;height&quot;:&quot;225&quot;,&quot;x&quot;:0,&quot;y&quot;:0}" math="0" shadow="1">
      <root>
        <mxCell id="0" />
        <mxCell id="1" parent="0" />
        <mxCell id="78961159f06e98e8-17" value="Reserve" style="swimlane;html=1;fontStyle=1;align=center;verticalAlign=top;childLayout=stackLayout;horizontal=1;startSize=26;horizontalStack=0;resizeParent=1;resizeLast=0;collapsible=1;marginBottom=0;swimlaneFillColor=#ffffff;rounded=1;shadow=0;comic=0;labelBackgroundColor=none;strokeWidth=1;fillColor=none;fontFamily=Verdana;fontSize=12" parent="1" vertex="1">
          <mxGeometry x="220" y="10" width="160" height="250" as="geometry" />
        </mxCell>
        <mxCell id="78961159f06e98e8-21" value="ObjectId clientId" style="text;html=1;strokeColor=none;fillColor=none;align=left;verticalAlign=top;spacingLeft=4;spacingRight=4;whiteSpace=wrap;overflow=hidden;rotatable=0;points=[[0,0.5],[1,0.5]];portConstraint=eastwest;rounded=1;labelBackgroundColor=none;" parent="78961159f06e98e8-17" vertex="1">
          <mxGeometry y="26" width="160" height="26" as="geometry" />
        </mxCell>
        <mxCell id="78961159f06e98e8-23" value="ObjectId carId" style="text;html=1;strokeColor=none;fillColor=none;align=left;verticalAlign=top;spacingLeft=4;spacingRight=4;whiteSpace=wrap;overflow=hidden;rotatable=0;points=[[0,0.5],[1,0.5]];portConstraint=eastwest;rounded=1;labelBackgroundColor=none;" parent="78961159f06e98e8-17" vertex="1">
          <mxGeometry y="52" width="160" height="26" as="geometry" />
        </mxCell>
        <mxCell id="78961159f06e98e8-25" value="String startDate" style="text;html=1;strokeColor=none;fillColor=none;align=left;verticalAlign=top;spacingLeft=4;spacingRight=4;whiteSpace=wrap;overflow=hidden;rotatable=0;points=[[0,0.5],[1,0.5]];portConstraint=eastwest;rounded=1;labelBackgroundColor=none;" parent="78961159f06e98e8-17" vertex="1">
          <mxGeometry y="78" width="160" height="26" as="geometry" />
        </mxCell>
        <mxCell id="78961159f06e98e8-26" value="String endDate" style="text;html=1;strokeColor=none;fillColor=none;align=left;verticalAlign=top;spacingLeft=4;spacingRight=4;whiteSpace=wrap;overflow=hidden;rotatable=0;points=[[0,0.5],[1,0.5]];portConstraint=eastwest;rounded=1;labelBackgroundColor=none;" parent="78961159f06e98e8-17" vertex="1">
          <mxGeometry y="104" width="160" height="26" as="geometry" />
        </mxCell>
        <mxCell id="78961159f06e98e8-24" value="int totalDays" style="text;html=1;strokeColor=none;fillColor=none;align=left;verticalAlign=top;spacingLeft=4;spacingRight=4;whiteSpace=wrap;overflow=hidden;rotatable=0;points=[[0,0.5],[1,0.5]];portConstraint=eastwest;rounded=1;labelBackgroundColor=none;" parent="78961159f06e98e8-17" vertex="1">
          <mxGeometry y="130" width="160" height="26" as="geometry" />
        </mxCell>
        <mxCell id="dYesBEDruP2xdG6YGQwl-13" value="double totalCost" style="text;html=1;strokeColor=none;fillColor=none;align=left;verticalAlign=top;spacingLeft=4;spacingRight=4;whiteSpace=wrap;overflow=hidden;rotatable=0;points=[[0,0.5],[1,0.5]];portConstraint=eastwest;rounded=1;labelBackgroundColor=none;" vertex="1" parent="78961159f06e98e8-17">
          <mxGeometry y="156" width="160" height="26" as="geometry" />
        </mxCell>
        <mxCell id="78961159f06e98e8-19" value="" style="line;html=1;strokeWidth=1;fillColor=none;align=left;verticalAlign=middle;spacingTop=-1;spacingLeft=3;spacingRight=3;rotatable=0;labelPosition=right;points=[];portConstraint=eastwest;rounded=1;labelBackgroundColor=none;" parent="78961159f06e98e8-17" vertex="1">
          <mxGeometry y="182" width="160" height="8" as="geometry" />
        </mxCell>
        <mxCell id="dYesBEDruP2xdG6YGQwl-14" value="&lt;b&gt;&lt;font style=&quot;font-size: 13px;&quot;&gt;Use Cases&lt;/font&gt;&lt;/b&gt;" style="text;html=1;align=center;verticalAlign=middle;spacingLeft=4;spacingRight=4;whiteSpace=wrap;overflow=hidden;rotatable=0;points=[[0,0.5],[1,0.5]];portConstraint=eastwest;perimeterSpacing=0;rounded=1;glass=0;shadow=0;labelBackgroundColor=none;labelBorderColor=none;spacing=2;spacingTop=0;" vertex="1" parent="78961159f06e98e8-17">
          <mxGeometry y="190" width="160" height="26" as="geometry" />
        </mxCell>
        <mxCell id="78961159f06e98e8-20" value="POST Create Reserve" style="text;html=1;strokeColor=none;fillColor=none;align=left;verticalAlign=top;spacingLeft=4;spacingRight=4;whiteSpace=wrap;overflow=hidden;rotatable=0;points=[[0,0.5],[1,0.5]];portConstraint=eastwest;rounded=1;labelBackgroundColor=none;" parent="78961159f06e98e8-17" vertex="1">
          <mxGeometry y="216" width="160" height="34" as="geometry" />
        </mxCell>
        <mxCell id="78961159f06e98e8-30" value="Client" style="swimlane;html=1;fontStyle=1;align=center;verticalAlign=top;childLayout=stackLayout;horizontal=1;startSize=26;horizontalStack=0;resizeParent=1;resizeLast=0;collapsible=1;marginBottom=0;swimlaneFillColor=#ffffff;rounded=1;shadow=0;comic=0;labelBackgroundColor=none;strokeWidth=1;fillColor=none;fontFamily=Verdana;fontSize=12" parent="1" vertex="1">
          <mxGeometry x="400" y="10" width="160" height="320" as="geometry" />
        </mxCell>
        <mxCell id="dYesBEDruP2xdG6YGQwl-10" value="&lt;b&gt;&lt;font style=&quot;font-size: 13px;&quot;&gt;Properties&lt;/font&gt;&lt;/b&gt;" style="text;html=1;strokeColor=none;fillColor=none;align=center;verticalAlign=top;spacingLeft=4;spacingRight=4;whiteSpace=wrap;overflow=hidden;rotatable=0;points=[[0,0.5],[1,0.5]];portConstraint=eastwest;rounded=1;labelBackgroundColor=none;" vertex="1" parent="78961159f06e98e8-30">
          <mxGeometry y="26" width="160" height="26" as="geometry" />
        </mxCell>
        <mxCell id="78961159f06e98e8-31" value="String username&lt;br&gt;" style="text;html=1;strokeColor=none;fillColor=none;align=left;verticalAlign=top;spacingLeft=4;spacingRight=4;whiteSpace=wrap;overflow=hidden;rotatable=0;points=[[0,0.5],[1,0.5]];portConstraint=eastwest;rounded=1;labelBackgroundColor=none;" parent="78961159f06e98e8-30" vertex="1">
          <mxGeometry y="52" width="160" height="26" as="geometry" />
        </mxCell>
        <mxCell id="78961159f06e98e8-32" value="String email" style="text;html=1;strokeColor=none;fillColor=none;align=left;verticalAlign=top;spacingLeft=4;spacingRight=4;whiteSpace=wrap;overflow=hidden;rotatable=0;points=[[0,0.5],[1,0.5]];portConstraint=eastwest;rounded=1;labelBackgroundColor=none;" parent="78961159f06e98e8-30" vertex="1">
          <mxGeometry y="78" width="160" height="26" as="geometry" />
        </mxCell>
        <mxCell id="78961159f06e98e8-33" value="String password" style="text;html=1;strokeColor=none;fillColor=none;align=left;verticalAlign=top;spacingLeft=4;spacingRight=4;whiteSpace=wrap;overflow=hidden;rotatable=0;points=[[0,0.5],[1,0.5]];portConstraint=eastwest;rounded=1;labelBackgroundColor=none;" parent="78961159f06e98e8-30" vertex="1">
          <mxGeometry y="104" width="160" height="26" as="geometry" />
        </mxCell>
        <mxCell id="78961159f06e98e8-34" value="String driverLicenseNumber" style="text;html=1;strokeColor=none;fillColor=none;align=left;verticalAlign=top;spacingLeft=4;spacingRight=4;whiteSpace=wrap;overflow=hidden;rotatable=0;points=[[0,0.5],[1,0.5]];portConstraint=eastwest;rounded=1;labelBackgroundColor=none;" parent="78961159f06e98e8-30" vertex="1">
          <mxGeometry y="130" width="160" height="26" as="geometry" />
        </mxCell>
        <mxCell id="78961159f06e98e8-36" value="String fullName" style="text;html=1;strokeColor=none;fillColor=none;align=left;verticalAlign=top;spacingLeft=4;spacingRight=4;whiteSpace=wrap;overflow=hidden;rotatable=0;points=[[0,0.5],[1,0.5]];portConstraint=eastwest;rounded=1;labelBackgroundColor=none;" parent="78961159f06e98e8-30" vertex="1">
          <mxGeometry y="156" width="160" height="26" as="geometry" />
        </mxCell>
        <mxCell id="78961159f06e98e8-37" value="String phoneNumber" style="text;html=1;strokeColor=none;fillColor=none;align=left;verticalAlign=top;spacingLeft=4;spacingRight=4;whiteSpace=wrap;overflow=hidden;rotatable=0;points=[[0,0.5],[1,0.5]];portConstraint=eastwest;rounded=1;labelBackgroundColor=none;" parent="78961159f06e98e8-30" vertex="1">
          <mxGeometry y="182" width="160" height="26" as="geometry" />
        </mxCell>
        <mxCell id="78961159f06e98e8-38" value="" style="line;html=1;strokeWidth=1;fillColor=none;align=left;verticalAlign=middle;spacingTop=-1;spacingLeft=3;spacingRight=3;rotatable=0;labelPosition=right;points=[];portConstraint=eastwest;rounded=1;labelBackgroundColor=none;" parent="78961159f06e98e8-30" vertex="1">
          <mxGeometry y="208" width="160" height="8" as="geometry" />
        </mxCell>
        <mxCell id="dYesBEDruP2xdG6YGQwl-11" value="&lt;b&gt;&lt;font style=&quot;font-size: 13px;&quot;&gt;Use Cases&lt;/font&gt;&lt;/b&gt;" style="text;html=1;align=center;verticalAlign=middle;spacingLeft=4;spacingRight=4;whiteSpace=wrap;overflow=hidden;rotatable=0;points=[[0,0.5],[1,0.5]];portConstraint=eastwest;perimeterSpacing=0;rounded=1;glass=0;shadow=0;labelBackgroundColor=none;labelBorderColor=none;spacing=2;spacingTop=0;" vertex="1" parent="78961159f06e98e8-30">
          <mxGeometry y="216" width="160" height="26" as="geometry" />
        </mxCell>
        <mxCell id="78961159f06e98e8-39" value="GET Find Client By Name" style="text;html=1;strokeColor=none;fillColor=none;align=left;verticalAlign=top;spacingLeft=4;spacingRight=4;whiteSpace=wrap;overflow=hidden;rotatable=0;points=[[0,0.5],[1,0.5]];portConstraint=eastwest;rounded=1;labelBackgroundColor=none;" parent="78961159f06e98e8-30" vertex="1">
          <mxGeometry y="242" width="160" height="26" as="geometry" />
        </mxCell>
        <mxCell id="78961159f06e98e8-40" value="POST Create Client" style="text;html=1;strokeColor=none;fillColor=none;align=left;verticalAlign=top;spacingLeft=4;spacingRight=4;whiteSpace=wrap;overflow=hidden;rotatable=0;points=[[0,0.5],[1,0.5]];portConstraint=eastwest;rounded=1;labelBackgroundColor=none;" parent="78961159f06e98e8-30" vertex="1">
          <mxGeometry y="268" width="160" height="26" as="geometry" />
        </mxCell>
        <mxCell id="78961159f06e98e8-42" value="POST Login" style="text;html=1;strokeColor=none;fillColor=none;align=left;verticalAlign=top;spacingLeft=4;spacingRight=4;whiteSpace=wrap;overflow=hidden;rotatable=0;points=[[0,0.5],[1,0.5]];portConstraint=eastwest;rounded=1;labelBackgroundColor=none;" parent="78961159f06e98e8-30" vertex="1">
          <mxGeometry y="294" width="160" height="26" as="geometry" />
        </mxCell>
        <mxCell id="78961159f06e98e8-56" value="Car" style="swimlane;html=1;fontStyle=1;align=center;verticalAlign=top;childLayout=stackLayout;horizontal=1;startSize=26;horizontalStack=0;resizeParent=1;resizeLast=0;collapsible=1;marginBottom=0;swimlaneFillColor=#ffffff;rounded=1;shadow=0;comic=0;labelBackgroundColor=none;strokeWidth=1;fillColor=none;fontFamily=Verdana;fontSize=14;" parent="1" vertex="1">
          <mxGeometry x="580" y="10" width="160" height="480" as="geometry" />
        </mxCell>
        <mxCell id="dYesBEDruP2xdG6YGQwl-9" value="&lt;b&gt;&lt;font style=&quot;font-size: 13px;&quot;&gt;Properties&lt;/font&gt;&lt;/b&gt;" style="text;html=1;strokeColor=none;fillColor=none;align=center;verticalAlign=top;spacingLeft=4;spacingRight=4;whiteSpace=wrap;overflow=hidden;rotatable=0;points=[[0,0.5],[1,0.5]];portConstraint=eastwest;rounded=1;labelBackgroundColor=none;" vertex="1" parent="78961159f06e98e8-56">
          <mxGeometry y="26" width="160" height="26" as="geometry" />
        </mxCell>
        <mxCell id="78961159f06e98e8-57" value="String model" style="text;html=1;strokeColor=none;fillColor=none;align=left;verticalAlign=top;spacingLeft=4;spacingRight=4;whiteSpace=wrap;overflow=hidden;rotatable=0;points=[[0,0.5],[1,0.5]];portConstraint=eastwest;rounded=1;labelBackgroundColor=none;" parent="78961159f06e98e8-56" vertex="1">
          <mxGeometry y="52" width="160" height="26" as="geometry" />
        </mxCell>
        <mxCell id="78961159f06e98e8-58" value="String plateNumber" style="text;html=1;strokeColor=none;fillColor=none;align=left;verticalAlign=top;spacingLeft=4;spacingRight=4;whiteSpace=wrap;overflow=hidden;rotatable=0;points=[[0,0.5],[1,0.5]];portConstraint=eastwest;rounded=1;labelBackgroundColor=none;" parent="78961159f06e98e8-56" vertex="1">
          <mxGeometry y="78" width="160" height="26" as="geometry" />
        </mxCell>
        <mxCell id="78961159f06e98e8-59" value="int year" style="text;html=1;strokeColor=none;fillColor=none;align=left;verticalAlign=top;spacingLeft=4;spacingRight=4;whiteSpace=wrap;overflow=hidden;rotatable=0;points=[[0,0.5],[1,0.5]];portConstraint=eastwest;rounded=1;labelBackgroundColor=none;" parent="78961159f06e98e8-56" vertex="1">
          <mxGeometry y="104" width="160" height="26" as="geometry" />
        </mxCell>
        <mxCell id="78961159f06e98e8-60" value="boolean isAutomatic" style="text;html=1;strokeColor=none;fillColor=none;align=left;verticalAlign=top;spacingLeft=4;spacingRight=4;whiteSpace=wrap;overflow=hidden;rotatable=0;points=[[0,0.5],[1,0.5]];portConstraint=eastwest;rounded=1;labelBackgroundColor=none;" parent="78961159f06e98e8-56" vertex="1">
          <mxGeometry y="130" width="160" height="26" as="geometry" />
        </mxCell>
        <mxCell id="78961159f06e98e8-61" value="String carType" style="text;html=1;strokeColor=none;fillColor=none;align=left;verticalAlign=top;spacingLeft=4;spacingRight=4;whiteSpace=wrap;overflow=hidden;rotatable=0;points=[[0,0.5],[1,0.5]];portConstraint=eastwest;rounded=1;labelBackgroundColor=none;" parent="78961159f06e98e8-56" vertex="1">
          <mxGeometry y="156" width="160" height="26" as="geometry" />
        </mxCell>
        <mxCell id="78961159f06e98e8-62" value="String color" style="text;html=1;strokeColor=none;fillColor=none;align=left;verticalAlign=top;spacingLeft=4;spacingRight=4;whiteSpace=wrap;overflow=hidden;rotatable=0;points=[[0,0.5],[1,0.5]];portConstraint=eastwest;rounded=1;labelBackgroundColor=none;" parent="78961159f06e98e8-56" vertex="1">
          <mxGeometry y="182" width="160" height="26" as="geometry" />
        </mxCell>
        <mxCell id="78961159f06e98e8-63" value="String fuelEfficiency" style="text;html=1;strokeColor=none;fillColor=none;align=left;verticalAlign=top;spacingLeft=4;spacingRight=4;whiteSpace=wrap;overflow=hidden;rotatable=0;points=[[0,0.5],[1,0.5]];portConstraint=eastwest;rounded=1;labelBackgroundColor=none;" parent="78961159f06e98e8-56" vertex="1">
          <mxGeometry y="208" width="160" height="26" as="geometry" />
        </mxCell>
        <mxCell id="78961159f06e98e8-65" value="double dailyRate" style="text;html=1;strokeColor=none;fillColor=none;align=left;verticalAlign=top;spacingLeft=4;spacingRight=4;whiteSpace=wrap;overflow=hidden;rotatable=0;points=[[0,0.5],[1,0.5]];portConstraint=eastwest;rounded=1;labelBackgroundColor=none;" parent="78961159f06e98e8-56" vertex="1">
          <mxGeometry y="234" width="160" height="26" as="geometry" />
        </mxCell>
        <mxCell id="78961159f06e98e8-66" value="List&amp;lt;String&amp;gt; images" style="text;html=1;strokeColor=none;fillColor=none;align=left;verticalAlign=top;spacingLeft=4;spacingRight=4;whiteSpace=wrap;overflow=hidden;rotatable=0;points=[[0,0.5],[1,0.5]];portConstraint=eastwest;rounded=1;labelBackgroundColor=none;" parent="78961159f06e98e8-56" vertex="1">
          <mxGeometry y="260" width="160" height="26" as="geometry" />
        </mxCell>
        <mxCell id="78961159f06e98e8-68" value="List&amp;lt;String&amp;gt; features" style="text;html=1;strokeColor=none;fillColor=none;align=left;verticalAlign=top;spacingLeft=4;spacingRight=4;whiteSpace=wrap;overflow=hidden;rotatable=0;points=[[0,0.5],[1,0.5]];portConstraint=eastwest;rounded=1;labelBackgroundColor=none;" parent="78961159f06e98e8-56" vertex="1">
          <mxGeometry y="286" width="160" height="26" as="geometry" />
        </mxCell>
        <mxCell id="78961159f06e98e8-64" value="" style="line;html=1;strokeWidth=1;fillColor=none;align=left;verticalAlign=middle;spacingTop=-1;spacingLeft=3;spacingRight=3;rotatable=0;labelPosition=right;points=[];portConstraint=eastwest;rounded=1;labelBackgroundColor=none;" parent="78961159f06e98e8-56" vertex="1">
          <mxGeometry y="312" width="160" height="8" as="geometry" />
        </mxCell>
        <mxCell id="dYesBEDruP2xdG6YGQwl-4" value="&lt;b&gt;&lt;font style=&quot;font-size: 13px;&quot;&gt;Use Cases&lt;/font&gt;&lt;/b&gt;" style="text;html=1;align=center;verticalAlign=middle;spacingLeft=4;spacingRight=4;whiteSpace=wrap;overflow=hidden;rotatable=0;points=[[0,0.5],[1,0.5]];portConstraint=eastwest;perimeterSpacing=0;rounded=1;glass=0;shadow=0;labelBackgroundColor=none;labelBorderColor=none;spacing=2;spacingTop=0;" vertex="1" parent="78961159f06e98e8-56">
          <mxGeometry y="320" width="160" height="26" as="geometry" />
        </mxCell>
        <mxCell id="dYesBEDruP2xdG6YGQwl-6" value="GET List All Cars" style="text;html=1;strokeColor=none;fillColor=none;align=left;verticalAlign=top;spacingLeft=4;spacingRight=4;whiteSpace=wrap;overflow=hidden;rotatable=0;points=[[0,0.5],[1,0.5]];portConstraint=eastwest;rounded=1;labelBackgroundColor=none;" vertex="1" parent="78961159f06e98e8-56">
          <mxGeometry y="346" width="160" height="26" as="geometry" />
        </mxCell>
        <mxCell id="dYesBEDruP2xdG6YGQwl-5" value="POST List Available Cars" style="text;html=1;strokeColor=none;fillColor=none;align=left;verticalAlign=top;spacingLeft=4;spacingRight=4;whiteSpace=wrap;overflow=hidden;rotatable=0;points=[[0,0.5],[1,0.5]];portConstraint=eastwest;rounded=1;labelBackgroundColor=none;" vertex="1" parent="78961159f06e98e8-56">
          <mxGeometry y="372" width="160" height="26" as="geometry" />
        </mxCell>
        <mxCell id="dYesBEDruP2xdG6YGQwl-3" value="POST Create Car" style="text;html=1;strokeColor=none;fillColor=none;align=left;verticalAlign=top;spacingLeft=4;spacingRight=4;whiteSpace=wrap;overflow=hidden;rotatable=0;points=[[0,0.5],[1,0.5]];portConstraint=eastwest;rounded=1;labelBackgroundColor=none;" vertex="1" parent="78961159f06e98e8-56">
          <mxGeometry y="398" width="160" height="26" as="geometry" />
        </mxCell>
        <mxCell id="dYesBEDruP2xdG6YGQwl-7" value="DELETE Delete Car By ID" style="text;html=1;strokeColor=none;fillColor=none;align=left;verticalAlign=top;spacingLeft=4;spacingRight=4;whiteSpace=wrap;overflow=hidden;rotatable=0;points=[[0,0.5],[1,0.5]];portConstraint=eastwest;rounded=1;labelBackgroundColor=none;" vertex="1" parent="78961159f06e98e8-56">
          <mxGeometry y="424" width="160" height="26" as="geometry" />
        </mxCell>
        <mxCell id="dYesBEDruP2xdG6YGQwl-8" value="PATCH Update Car By ID" style="text;html=1;strokeColor=none;fillColor=none;align=left;verticalAlign=top;spacingLeft=4;spacingRight=4;whiteSpace=wrap;overflow=hidden;rotatable=0;points=[[0,0.5],[1,0.5]];portConstraint=eastwest;rounded=1;labelBackgroundColor=none;" vertex="1" parent="78961159f06e98e8-56">
          <mxGeometry y="450" width="160" height="26" as="geometry" />
        </mxCell>
      </root>
    </mxGraphModel>
  </diagram>
</mxfile>
